<svg width="48" height="48" viewBox="0 0 48 48" fill="none" xmlns="http://www.w3.org/2000/svg">
<g filter="url(#filter0_d)">
<rect x="0.5" y="0.5" width="47" height="47" rx="23.5" stroke="#666666"/>
</g>
<path d="M25.0202 14C26.8202 14 27.2002 14.02 28.1202 14.06C29.1802 14.11 29.9102 14.28 30.5402 14.53C31.2002 14.78 31.7602 15.13 32.3102 15.68C32.8702 16.23 33.2102 16.79 33.4702 17.45C33.7202 18.08 33.8802 18.81 33.9302 19.88C33.9802 20.83 33.9902 21.2 33.9902 23.2V24.8C33.9902 26.8 33.9802 27.17 33.9302 28.12C33.9144 28.9468 33.7589 29.7651 33.4702 30.54C33.2102 31.2 32.8702 31.76 32.3202 32.31C31.7602 32.87 31.2002 33.21 30.5402 33.47C29.9102 33.72 29.1802 33.88 28.1202 33.93C27.1702 33.98 26.7902 33.99 24.7902 33.99H23.2002C21.2002 33.99 20.8302 33.98 19.8702 33.93C19.0433 33.9141 18.2251 33.7586 17.4502 33.47C16.7838 33.2195 16.1798 32.8271 15.6802 32.32C15.168 31.8186 14.772 31.211 14.5202 30.54C14.2318 29.765 14.0763 28.9468 14.0602 28.12C14.0111 27.0874 13.9911 26.0537 14.0002 25.02V22.97C14.0002 21.17 14.0202 20.79 14.0602 19.87C14.1102 18.81 14.2802 18.08 14.5202 17.45C14.7802 16.79 15.1202 16.23 15.6802 15.68C16.1753 15.1674 16.7806 14.7742 17.4502 14.53C18.2246 14.2382 19.0428 14.0793 19.8702 14.06C20.7902 14.02 21.1702 14 22.9702 14H25.0202ZM25.0402 15.8H22.9502C21.2202 15.8 20.8502 15.82 19.9502 15.86C18.9802 15.9 18.4502 16.06 18.1002 16.2C17.6302 16.38 17.3002 16.6 16.9502 16.95C16.6002 17.3 16.3802 17.63 16.2002 18.1C16.0702 18.45 15.9002 18.98 15.8602 19.96C15.8202 20.86 15.8002 21.22 15.8002 22.96V25.04C15.8002 26.78 15.8202 27.14 15.8602 28.04C15.9002 29.01 16.0602 29.54 16.2002 29.89C16.3802 30.36 16.6002 30.69 16.9502 31.04C17.3002 31.39 17.6302 31.61 18.1002 31.79C18.4502 31.93 18.9802 32.09 19.9602 32.13C20.9302 32.18 21.2802 32.19 23.4402 32.19H24.5502C26.7202 32.19 27.0602 32.18 28.0402 32.13C29.0102 32.09 29.5402 31.93 29.8902 31.79C30.3602 31.61 30.6902 31.39 31.0402 31.04C31.3902 30.69 31.6102 30.36 31.7902 29.89C31.9302 29.54 32.0902 29.01 32.1302 28.04C32.1802 27.06 32.1902 26.72 32.1902 24.55V23.45C32.1902 21.28 32.1802 20.93 32.1302 19.95C32.0902 18.98 31.9302 18.45 31.7902 18.1C31.6292 17.6654 31.373 17.2725 31.0402 16.95C30.7179 16.6169 30.3249 16.3606 29.8902 16.2C29.2971 15.9832 28.6716 15.8682 28.0402 15.86C27.0409 15.8123 26.0405 15.7923 25.0402 15.8ZM24.0002 18.86C25.362 18.86 26.6681 19.401 27.6311 20.364C28.5941 21.327 29.1352 22.6331 29.1352 23.995C29.1352 25.3569 28.5941 26.663 27.6311 27.626C26.6681 28.589 25.362 29.13 24.0002 29.13C22.6383 29.13 21.3322 28.589 20.3692 27.626C19.4062 26.663 18.8652 25.3569 18.8652 23.995C18.8652 22.6331 19.4062 21.327 20.3692 20.364C21.3322 19.401 22.6383 18.86 24.0002 18.86ZM24.0002 20.66C23.1157 20.66 22.2674 21.0114 21.642 21.6368C21.0165 22.2622 20.6652 23.1105 20.6652 23.995C20.6652 24.8795 21.0165 25.7278 21.642 26.3532C22.2674 26.9786 23.1157 27.33 24.0002 27.33C24.8847 27.33 25.7329 26.9786 26.3584 26.3532C26.9838 25.7278 27.3352 24.8795 27.3352 23.995C27.3352 23.1105 26.9838 22.2622 26.3584 21.6368C25.7329 21.0114 24.8847 20.66 24.0002 20.66ZM29.3302 17.46C29.6484 17.46 29.9536 17.5864 30.1787 17.8115C30.4037 18.0365 30.5302 18.3417 30.5302 18.66C30.5302 18.9783 30.4037 19.2835 30.1787 19.5085C29.9536 19.7336 29.6484 19.86 29.3302 19.86C29.0119 19.86 28.7067 19.7336 28.4816 19.5085C28.2566 19.2835 28.1302 18.9783 28.1302 18.66C28.1302 18.3417 28.2566 18.0365 28.4816 17.8115C28.7067 17.5864 29.0119 17.46 29.3302 17.46Z" fill="white"/>
<defs>
<filter id="filter0_d" x="0" y="0" width="48" height="48" filterUnits="userSpaceOnUse" color-interpolation-filters="sRGB">
<feFlood flood-opacity="0" result="BackgroundImageFix"/>
<feColorMatrix in="SourceAlpha" type="matrix" values="0 0 0 0 0 0 0 0 0 0 0 0 0 0 0 0 0 0 127 0" result="hardAlpha"/>
<feOffset/>
<feColorMatrix type="matrix" values="0 0 0 0 0.4 0 0 0 0 0.4 0 0 0 0 0.4 0 0 0 1 0"/>
<feBlend mode="normal" in2="BackgroundImageFix" result="effect1_dropShadow"/>
<feBlend mode="normal" in="SourceGraphic" in2="effect1_dropShadow" result="shape"/>
</filter>
</defs>
</svg>
