<!-- Generated by IcoMoon.io -->
<svg version="1.1" xmlns="http://www.w3.org/2000/svg" width="30" height="30" viewBox="0 0 30 30">
<title>iconfinder_211871_pause_icon</title>
<path fill="#b3b3b3" d="M12.539 28.828v-27.662c0-0.515-0.415-0.93-0.938-0.93h-5.506c-0.523 0-0.938 0.415-0.938 0.93v27.662c0 0.515 0.415 0.938 0.938 0.938h5.506c0.523 0 0.938-0.415 0.938-0.938z"></path>
<path fill="#b3b3b3" d="M23.906 0.234h-5.506c-0.515 0-0.938 0.415-0.938 0.93v27.662c0 0.515 0.415 0.938 0.938 0.938h5.506c0.515 0 0.938-0.415 0.938-0.938v-27.662c0-0.515-0.415-0.93-0.938-0.93z"></path>
</svg>
