<svg width="48" height="48" viewBox="0 0 48 48" fill="none" xmlns="http://www.w3.org/2000/svg">
<g filter="url(#filter0_d)">
<rect x="0.5" y="0.5" width="47" height="47" rx="23.5" stroke="#666666"/>
</g>
<path d="M24.0002 14C21.6757 14.0082 19.4267 14.826 17.6398 16.3128C15.8529 17.7995 14.6397 19.8623 14.2089 22.1466C13.7781 24.4309 14.1565 26.7939 15.2791 28.8293C16.4017 30.8648 18.1984 32.4456 20.3602 33.3C20.2602 32.51 20.1902 31.3 20.3902 30.43L21.5602 25.46C21.5602 25.46 21.2602 24.86 21.2602 23.98C21.2602 22.59 22.0702 21.56 23.0802 21.56C23.9302 21.56 24.3502 22.2 24.3502 22.96C24.3502 23.82 23.8002 25.1 23.5102 26.29C23.2702 27.29 24.0102 28.1 25.0002 28.1C26.7802 28.1 28.1402 26.23 28.1402 23.53C28.1402 21.13 26.4202 19.47 23.9602 19.47C23.3758 19.4443 22.7923 19.5373 22.2448 19.7434C21.6973 19.9495 21.1973 20.2644 20.7749 20.669C20.3525 21.0737 20.0164 21.5598 19.787 22.0979C19.5576 22.636 19.4397 23.215 19.4402 23.8C19.4402 24.66 19.7702 25.58 20.1802 26.08C20.2602 26.18 20.2702 26.27 20.2402 26.37L19.9602 27.5C19.9202 27.68 19.8102 27.73 19.6302 27.64C18.3702 27.05 17.5902 25.24 17.5902 23.76C17.5902 20.61 19.8902 17.72 24.2102 17.72C27.6702 17.72 30.3802 20.18 30.3802 23.49C30.3802 26.94 28.2002 29.71 25.1802 29.71C24.1802 29.71 23.2202 29.18 22.9002 28.56L22.2702 30.93C21.9751 31.8577 21.5581 32.7421 21.0302 33.56C22.4041 33.9816 23.8526 34.1021 25.2772 33.9133C26.7018 33.7245 28.069 33.2309 29.2856 32.4661C30.5023 31.7014 31.5398 30.6833 32.3275 29.4814C33.1152 28.2795 33.6346 26.9219 33.8504 25.5011C34.0661 24.0804 33.9731 22.6298 33.5776 21.2482C33.1822 19.8666 32.4936 18.5865 31.5588 17.4951C30.6241 16.4036 29.465 15.5264 28.1607 14.9233C26.8563 14.3202 25.4373 14.0053 24.0002 14Z" fill="white"/>
<defs>
<filter id="filter0_d" x="0" y="0" width="48" height="48" filterUnits="userSpaceOnUse" color-interpolation-filters="sRGB">
<feFlood flood-opacity="0" result="BackgroundImageFix"/>
<feColorMatrix in="SourceAlpha" type="matrix" values="0 0 0 0 0 0 0 0 0 0 0 0 0 0 0 0 0 0 127 0" result="hardAlpha"/>
<feOffset/>
<feColorMatrix type="matrix" values="0 0 0 0 0.4 0 0 0 0 0.4 0 0 0 0 0.4 0 0 0 1 0"/>
<feBlend mode="normal" in2="BackgroundImageFix" result="effect1_dropShadow"/>
<feBlend mode="normal" in="SourceGraphic" in2="effect1_dropShadow" result="shape"/>
</filter>
</defs>
</svg>
